<svg width="76" height="69" viewBox="144 54 76 69" xmlns="http://www.w3.org/2000/svg"><g fill="#FFF" fill-rule="evenodd"><path d="M181.602 106.523c-.024 0-.043-.003-.067-.003l3.453 2.972h-6.976l3.457-2.972c-14.348-.036-27.254-5.563-36.219-14.36.965 15.445 12.184 27.442 31.105 30.024h10.493c18.922-2.579 30.136-14.575 31.105-30.024-8.996 8.824-21.953 14.363-36.351 14.363zm-1.653-45.711c1.301-.46 1.809-.46 3.11 0 1.336-2.367 3.382-4.593 5.527-5.394-4.453-.789-9.77-.797-14.25-.027 2.172.773 4.258 3.023 5.613 5.421zm3.203 4.911h-3.269s-.567-2.836 0-3.446c.578-.621 2.754-.683 3.269 0 .5.668 0 3.446 0 3.446z"/><path d="M216.145 73.766c2.593-2.594-10.375-19.883-22.477-12.106 1.855-1.547 2.715-1.941 3.406-2.39-.816-1.102-2.254-1.997-4.086-2.688-1.676 1.727-3.718 4.621-3.718 6.93 6.816-2.371 13.312-2.91 18.394 2.738-8.793-.699-12.742-.996-15.844 1.336 2.547 1.387 5.551 3.836 5.219 12.133-12.777-12.778-18.301-12.778-31.078 0-.332-8.301 2.672-10.746 5.219-12.133-3.102-2.332-7.051-2.031-15.844-1.336 5.082-5.648 11.578-5.109 18.394-2.738 0-2.344-2.101-5.285-3.789-7.004-1.859.672-3.339 1.547-4.214 2.621.835.461 1.562.824 3.609 2.531-12.106-7.781-25.07 9.512-22.477 12.106-4.074 2.035-2.816 12.066-2.089 16.281a47.526 47.526 0 0 0 3.105 2.832v-2.977l.863.758v2.934c4.168 3.332 8.969 6.043 14.227 7.961v-2.774l.863.352v2.726c5.387 1.86 11.227 2.895 17.34 2.93v-2.344h.867v2.336c14.391-.136 27.297-5.801 36.199-14.734.723-4.215 1.981-14.246-2.089-16.281z"/></g></svg>